<svg xmlns="http://www.w3.org/2000/svg" width="94.647" height="94.647" viewBox="0 0 94.647 94.647">
  <g id="poker-chip" transform="translate(-1 -1)">
    <path id="Caminho_1" data-name="Caminho 1" d="M47.633,41H44.58v3.053a4.58,4.58,0,1,0,0,9.159h3.053a1.527,1.527,0,1,1,0,3.053h-4.58V54.739H40v4.58h4.58v3.053h3.053V59.319a4.58,4.58,0,1,0,0-9.159H44.58a1.527,1.527,0,0,1,0-3.053h4.58v1.527h3.053v-4.58h-4.58Z" transform="translate(20.536 21.063)" fill="#ae3458"/>
    <path id="Caminho_2" data-name="Caminho 2" d="M95.647,42.217a19.845,19.845,0,1,0-37.389,9.243,23,23,0,0,0-11.449,9.892,23.115,23.115,0,0,0-5.845-3.342A6.075,6.075,0,0,0,39.64,47.162a6.087,6.087,0,0,0,0-6.836,6.068,6.068,0,0,0,0-11.483,6.087,6.087,0,0,0,0-6.836,6.068,6.068,0,0,0,0-11.483A6.1,6.1,0,0,0,34.584,1H7.106a6.09,6.09,0,0,0-2,11.848,6.087,6.087,0,0,0,0,6.836,6.068,6.068,0,0,0,0,11.483A6.087,6.087,0,0,0,5.1,38a6.068,6.068,0,0,0,0,11.483,6.087,6.087,0,0,0,0,6.836,6.09,6.09,0,0,0,2,11.848h.887a12.625,12.625,0,0,0-.887,4.58v6.106c0,9.259,10.272,16.792,22.9,16.792,8.03,0,15.244-2.98,19.4-7.879A22.868,22.868,0,0,0,85.358,59.6a19.825,19.825,0,0,0,10.289-17.38Zm-9.132,8.555a13.7,13.7,0,0,0,2.931-7.028h3.071A16.756,16.756,0,0,1,88.7,52.955ZM66.642,86.488A13.739,13.739,0,1,1,80.381,72.749,13.755,13.755,0,0,1,66.642,86.488ZM77.38,59.852a16.706,16.706,0,0,0-9.211-3.818V52.981A19.732,19.732,0,0,1,79.537,57.7ZM65.116,56.034A16.721,16.721,0,0,0,55.9,59.852l-2.159-2.159A19.736,19.736,0,0,1,65.114,52.98v3.055Zm-11.37,5.977a16.706,16.706,0,0,0-3.818,9.211H46.875a19.732,19.732,0,0,1,4.714-11.368ZM46.875,74.275h3.053a16.721,16.721,0,0,0,3.818,9.211l-2.159,2.159a19.739,19.739,0,0,1-4.713-11.37Zm9.03,11.37a16.706,16.706,0,0,0,9.211,3.818v3.053A19.732,19.732,0,0,1,53.747,87.8Zm12.264,3.818a16.721,16.721,0,0,0,9.211-3.818L79.539,87.8A19.736,19.736,0,0,1,68.17,92.518V89.463Zm11.37-5.977a16.706,16.706,0,0,0,3.818-9.211H86.41A19.732,19.732,0,0,1,81.7,85.643Zm3.818-12.264a16.721,16.721,0,0,0-3.818-9.211L81.7,59.852A19.736,19.736,0,0,1,86.411,71.22H83.357Zm-14.9-21.28A10.678,10.678,0,1,1,77.7,52.711,22.725,22.725,0,0,0,68.454,49.942Zm-6.3-9.251H59.087a16.721,16.721,0,0,1,3.818-9.211l2.172,2.172A13.673,13.673,0,0,0,62.153,40.691Zm27.3,0a13.673,13.673,0,0,0-2.925-7.039L88.7,31.479a16.706,16.706,0,0,1,3.818,9.211Zm-5.083-9.2a13.66,13.66,0,0,0-7.039-2.925V25.5a16.707,16.707,0,0,1,9.211,3.819ZM74.275,28.568a13.667,13.667,0,0,0-7.039,2.925l-2.172-2.172A16.707,16.707,0,0,1,74.275,25.5ZM59.087,43.744h3.064a13.708,13.708,0,0,0,2.334,6.216,22.779,22.779,0,0,0-3.264.566A16.655,16.655,0,0,1,59.087,43.744ZM7.106,52.9a3.056,3.056,0,0,1,3.053-3.053h3.053v6.106H10.159A3.056,3.056,0,0,1,7.106,52.9Zm0-18.319a3.056,3.056,0,0,1,3.053-3.053h3.053v6.106H10.159A3.056,3.056,0,0,1,7.106,34.584Zm0-18.319a3.056,3.056,0,0,1,3.053-3.053h3.053v6.106H10.159A3.056,3.056,0,0,1,7.106,16.266Zm30.531,9.159a3.056,3.056,0,0,1-3.053,3.053H31.531V22.372h3.053A3.056,3.056,0,0,1,37.638,25.425Zm0,18.319A3.056,3.056,0,0,1,34.584,46.8H31.531V40.691h3.053A3.056,3.056,0,0,1,37.638,43.744ZM22.372,49.85v6.106H16.266V49.85Zm0-3.053V40.691h6.106V46.8Zm0-15.266v6.106H16.266V31.531Zm0-18.319v6.106H16.266V13.213Zm6.106,9.159v6.106H22.372V22.372ZM25.425,37.638V31.531h6.106v6.106Zm0-18.319V13.213h6.106v6.106Zm-3.053-9.159V4.053h6.106v6.106Zm-3.053,0H13.213V4.053h6.106Zm0,12.213v6.106H13.213V22.372Zm0,18.319V46.8H13.213V40.691ZM13.213,59.01h3.667a22.378,22.378,0,0,0-3.667,2.362Zm12.213-3.053V49.85h6.106v6.106ZM40.691,52.9a3.056,3.056,0,0,1-3.053,3.053H34.584V49.85h3.053A3.056,3.056,0,0,1,40.691,52.9Zm0-18.319a3.056,3.056,0,0,1-3.053,3.053H34.584V31.531h3.053A3.056,3.056,0,0,1,40.691,34.584Zm0-18.319a3.056,3.056,0,0,1-3.053,3.053H34.584V13.213h3.053A3.056,3.056,0,0,1,40.691,16.266ZM37.638,7.106a3.056,3.056,0,0,1-3.053,3.053H31.531V4.053h3.053A3.056,3.056,0,0,1,37.638,7.106Zm-33.584,0A3.056,3.056,0,0,1,7.106,4.053h3.053v6.106H7.106A3.056,3.056,0,0,1,4.053,7.106Zm0,18.319a3.056,3.056,0,0,1,3.053-3.053h3.053v6.106H7.106A3.056,3.056,0,0,1,4.053,25.425Zm0,18.319a3.056,3.056,0,0,1,3.053-3.053h3.053V46.8H7.106A3.056,3.056,0,0,1,4.053,43.744ZM7.106,65.116a3.053,3.053,0,0,1,0-6.106h3.053v5.4c-.183.232-.357.469-.525.708ZM30,59.01c5.984,0,11.643,1.933,15.414,5.181A22.749,22.749,0,0,0,44.4,67.4c-2.806-3.026-7.9-5.337-14.4-5.337-10.045,0-16.792,5.526-16.792,10.686S19.96,83.435,30,83.435c6.491,0,11.59-2.311,14.4-5.337a22.749,22.749,0,0,0,1.018,3.209c-3.771,3.249-9.43,5.181-15.414,5.181-10.942,0-19.845-6.164-19.845-13.739S19.062,59.01,30,59.01ZM43.744,72.749c0,3.187-5.227,7.633-13.739,7.633s-13.739-4.445-13.739-7.633S21.493,65.116,30,65.116,43.744,69.561,43.744,72.749ZM28.478,89.484v3.056a27.21,27.21,0,0,1-6.106-1.006V88.562A30.082,30.082,0,0,0,28.478,89.484Zm3.053-.008a30.3,30.3,0,0,0,6.106-.89v2.925a27.007,27.007,0,0,1-6.106,1.04ZM10.55,81.561a21.717,21.717,0,0,0,8.769,6.027v2.824c-4.448-1.977-7.694-5.141-8.769-8.851ZM40.691,90.4V87.6a23.288,23.288,0,0,0,6.118-3.458c.221.383.447.765.69,1.133A17.562,17.562,0,0,1,40.691,90.4ZM80.98,54.921a13.716,13.716,0,0,0,3.386-1.981l2.178,2.18a16.808,16.808,0,0,1-3.151,2.068A23.059,23.059,0,0,0,80.98,54.921Z" transform="translate(0)" fill="#ae3458"/>
    <path id="Caminho_3" data-name="Caminho 3" d="M45.75,30.984l6.488,8.651,6.488-8.651-6.488-8.651Zm6.488,3.561-2.671-3.561,2.671-3.561,2.671,3.561Z" transform="translate(23.564 11.233)" fill="#ae3458"/>
  </g>
</svg>
