<svg id="edit" xmlns="http://www.w3.org/2000/svg" width="101.47" height="101.475" viewBox="0 0 101.47 101.475">
  <path id="Caminho_4" data-name="Caminho 4" d="M13.51,64.687a2.133,2.133,0,0,1-1.5-.617,2.112,2.112,0,0,1-.579-1.907l2.989-14.946A2.072,2.072,0,0,1,15,46.134L47.889,13.248a6.354,6.354,0,0,1,8.968,0l5.979,5.979a6.347,6.347,0,0,1,0,8.968L29.949,61.081a2.1,2.1,0,0,1-1.082.579L13.921,64.649A2.243,2.243,0,0,1,13.51,64.687Zm4.938-16.02L16.208,59.876l11.209-2.241L59.851,25.2a2.116,2.116,0,0,0,0-2.989l-5.979-5.979a2.116,2.116,0,0,0-2.989,0ZM28.457,59.584H28.5Z" transform="translate(36.779 36.788)" fill="#af325a"/>
  <path id="Caminho_5" data-name="Caminho 5" d="M40.167,79.106H10.57A10.58,10.58,0,0,1,0,68.536V13.57A10.58,10.58,0,0,1,10.57,3h8.456a2.114,2.114,0,0,1,0,4.228H10.57A6.35,6.35,0,0,0,4.228,13.57V68.536a6.35,6.35,0,0,0,6.342,6.342h29.6a2.114,2.114,0,1,1,0,4.228Z" transform="translate(0 9.684)" fill="#af325a"/>
  <path id="Caminho_6" data-name="Caminho 6" d="M31.027,41.053a2.115,2.115,0,0,1-2.114-2.114V13.57A6.35,6.35,0,0,0,22.57,7.228H14.114a2.114,2.114,0,0,1,0-4.228H22.57a10.58,10.58,0,0,1,10.57,10.57V38.939A2.115,2.115,0,0,1,31.027,41.053Z" transform="translate(38.738 9.684)" fill="#af325a"/>
  <path id="Caminho_7" data-name="Caminho 7" d="M35.711,25.369H10.342A6.35,6.35,0,0,1,4,19.027V10.57A2.115,2.115,0,0,1,6.114,8.456h6.554a10.573,10.573,0,0,1,20.718,0h6.554a2.115,2.115,0,0,1,2.114,2.114v8.456A6.35,6.35,0,0,1,35.711,25.369ZM8.228,12.684v6.342a2.12,2.12,0,0,0,2.114,2.114H35.711a2.12,2.12,0,0,0,2.114-2.114V12.684H31.483a2.115,2.115,0,0,1-2.114-2.114,6.342,6.342,0,1,0-12.684,0,2.115,2.115,0,0,1-2.114,2.114Z" transform="translate(12.913)" fill="#af325a"/>
  <path id="Caminho_8" data-name="Caminho 8" d="M47.4,12.228H5.114A2.114,2.114,0,1,1,5.114,8H47.4a2.114,2.114,0,1,1,0,4.228Z" transform="translate(9.684 25.825)" fill="#af325a"/>
  <path id="Caminho_9" data-name="Caminho 9" d="M47.4,15.228H5.114a2.114,2.114,0,1,1,0-4.228H47.4a2.114,2.114,0,1,1,0,4.228Z" transform="translate(9.684 35.509)" fill="#af325a"/>
  <path id="Caminho_10" data-name="Caminho 10" d="M47.4,18.228H5.114a2.114,2.114,0,0,1,0-4.228H47.4a2.114,2.114,0,1,1,0,4.228Z" transform="translate(9.684 45.194)" fill="#af325a"/>
</svg>
